<?xml version="1.0" encoding="UTF-8"?>
<!DOCTYPE svg PUBLIC "-//W3C//DTD SVG 1.1//EN" "http://www.w3.org/Graphics/SVG/1.1/DTD/svg11.dtd">
<svg version="1.2" width="8.47mm" height="8.47mm" viewBox="0 0 847 847" preserveAspectRatio="xMidYMid" fill-rule="evenodd" stroke-width="28.222" stroke-linejoin="round" xmlns="http://www.w3.org/2000/svg" xmlns:ooo="http://xml.openoffice.org/svg/export" xmlns:xlink="http://www.w3.org/1999/xlink" xmlns:presentation="http://sun.com/xmlns/staroffice/presentation" xmlns:smil="http://www.w3.org/2001/SMIL20/" xmlns:anim="urn:oasis:names:tc:opendocument:xmlns:animation:1.0" xml:space="preserve">
 <defs class="ClipPathGroup">
  <clipPath id="presentation_clip_path" clipPathUnits="userSpaceOnUse">
   <rect x="0" y="0" width="847" height="847"/>
  </clipPath>
  <clipPath id="presentation_clip_path_shrink" clipPathUnits="userSpaceOnUse">
   <rect x="0" y="0" width="846" height="846"/>
  </clipPath>
 </defs>
 <defs class="TextShapeIndex">
  <g ooo:slide="id1" ooo:id-list="id3"/>
 </defs>
 <defs class="EmbeddedBulletChars">
  <g id="bullet-char-template-57356" transform="scale(0.00048828125,-0.00048828125)">
   <path d="M 580,1141 L 1163,571 580,0 -4,571 580,1141 Z"/>
  </g>
  <g id="bullet-char-template-57354" transform="scale(0.00048828125,-0.00048828125)">
   <path d="M 8,1128 L 1137,1128 1137,0 8,0 8,1128 Z"/>
  </g>
  <g id="bullet-char-template-10146" transform="scale(0.00048828125,-0.00048828125)">
   <path d="M 174,0 L 602,739 174,1481 1456,739 174,0 Z M 1358,739 L 309,1346 659,739 1358,739 Z"/>
  </g>
  <g id="bullet-char-template-10132" transform="scale(0.00048828125,-0.00048828125)">
   <path d="M 2015,739 L 1276,0 717,0 1260,543 174,543 174,936 1260,936 717,1481 1274,1481 2015,739 Z"/>
  </g>
  <g id="bullet-char-template-10007" transform="scale(0.00048828125,-0.00048828125)">
   <path d="M 0,-2 C -7,14 -16,27 -25,37 L 356,567 C 262,823 215,952 215,954 215,979 228,992 255,992 264,992 276,990 289,987 310,991 331,999 354,1012 L 381,999 492,748 772,1049 836,1024 860,1049 C 881,1039 901,1025 922,1006 886,937 835,863 770,784 769,783 710,716 594,584 L 774,223 C 774,196 753,168 711,139 L 727,119 C 717,90 699,76 672,76 641,76 570,178 457,381 L 164,-76 C 142,-110 111,-127 72,-127 30,-127 9,-110 8,-76 1,-67 -2,-52 -2,-32 -2,-23 -1,-13 0,-2 Z"/>
  </g>
  <g id="bullet-char-template-10004" transform="scale(0.00048828125,-0.00048828125)">
   <path d="M 285,-33 C 182,-33 111,30 74,156 52,228 41,333 41,471 41,549 55,616 82,672 116,743 169,778 240,778 293,778 328,747 346,684 L 369,508 C 377,444 397,411 428,410 L 1163,1116 C 1174,1127 1196,1133 1229,1133 1271,1133 1292,1118 1292,1087 L 1292,965 C 1292,929 1282,901 1262,881 L 442,47 C 390,-6 338,-33 285,-33 Z"/>
  </g>
  <g id="bullet-char-template-9679" transform="scale(0.00048828125,-0.00048828125)">
   <path d="M 813,0 C 632,0 489,54 383,161 276,268 223,411 223,592 223,773 276,916 383,1023 489,1130 632,1184 813,1184 992,1184 1136,1130 1245,1023 1353,916 1407,772 1407,592 1407,412 1353,268 1245,161 1136,54 992,0 813,0 Z"/>
  </g>
  <g id="bullet-char-template-8226" transform="scale(0.00048828125,-0.00048828125)">
   <path d="M 346,457 C 273,457 209,483 155,535 101,586 74,649 74,723 74,796 101,859 155,911 209,963 273,989 346,989 419,989 480,963 531,910 582,859 608,796 608,723 608,648 583,586 532,535 482,483 420,457 346,457 Z"/>
  </g>
  <g id="bullet-char-template-8211" transform="scale(0.00048828125,-0.00048828125)">
   <path d="M -4,459 L 1135,459 1135,606 -4,606 -4,459 Z"/>
  </g>
  <g id="bullet-char-template-61548" transform="scale(0.00048828125,-0.00048828125)">
   <path d="M 173,740 C 173,903 231,1043 346,1159 462,1274 601,1332 765,1332 928,1332 1067,1274 1183,1159 1299,1043 1357,903 1357,740 1357,577 1299,437 1183,322 1067,206 928,148 765,148 601,148 462,206 346,322 231,437 173,577 173,740 Z"/>
  </g>
 </defs>
 <g>
  <g id="id2" class="Master_Slide">
   <g id="bg-id2" class="Background"/>
   <g id="bo-id2" class="BackgroundObjects"/>
  </g>
 </g>
 <g class="SlideGroup">
  <g>
   <g id="container-id1">
    <g id="id1" class="Slide" clip-path="url(#presentation_clip_path)">
     <g class="Page">
      <g class="Graphic">
       <title>3333
       </title>
       <g id="id3">
        <rect class="BoundingBox" stroke="none" fill="none" x="0" y="0" width="847" height="847"/>
        <defs>
         <clipPath id="clip_path_1" clipPathUnits="userSpaceOnUse">
          <path d="M 0,0 L 846,0 846,846 0,846 0,0 Z"/>
         </clipPath>
        </defs>
        <g clip-path="url(#clip_path_1)">
         <path fill="rgb(0,45,117)" stroke="none" d="M 255,0 L 161,0 161,0 C 133,0 105,7 81,22 56,36 36,56 22,81 7,105 0,133 0,161 L 0,255 0,255 C 0,255 0,255 0,255 0,256 0,256 1,257 1,258 2,259 3,259 3,259 4,260 5,260 6,260 7,259 8,259 8,259 8,258 9,258 L 258,9 258,9 C 258,8 259,8 259,8 259,7 260,6 260,5 260,4 259,3 259,3 259,2 258,1 257,1 256,0 256,0 255,0 255,0 255,0 255,0 L 255,0 Z"/>
         <path fill="rgb(0,45,117)" stroke="none" d="M 4,355 L 4,355 4,355 C 3,356 2,357 2,358 1,360 0,362 0,364 L 0,690 0,690 C 0,718 7,744 21,768 35,792 54,811 78,825 102,839 128,846 156,846 L 379,846 379,355 4,355 Z M 191,669 L 191,669 C 190,669 190,669 189,669 177,669 165,666 155,660 145,654 136,645 130,635 124,624 121,612 121,600 121,588 124,577 130,566 136,556 145,547 155,541 165,535 177,532 189,532 201,532 213,535 224,541 234,547 243,556 249,566 255,577 258,588 258,600 258,601 258,601 258,602 L 258,602 C 258,613 254,625 249,635 243,645 234,654 224,660 214,666 202,669 191,669 L 191,669 Z"/>
         <path fill="rgb(0,45,117)" stroke="none" d="M 690,0 L 430,0 430,0 C 430,0 430,0 430,0 412,0 396,5 381,13 373,17 367,23 361,29 L 149,240 149,240 C 148,241 147,242 146,244 145,246 144,249 144,251 144,254 145,257 146,259 147,261 149,263 151,264 154,266 156,267 159,267 159,267 159,267 160,266 L 467,266 467,846 690,846 690,846 C 718,846 744,839 768,825 792,811 811,792 825,768 839,744 846,718 846,690 L 846,156 846,156 846,156 C 846,128 839,102 825,78 811,54 792,35 768,21 744,7 718,0 690,0 L 690,0 Z M 668,670 L 668,670 C 667,670 667,670 666,670 654,670 642,667 632,661 622,655 613,646 607,636 601,625 598,613 598,601 598,589 601,578 607,567 613,557 622,548 632,542 642,536 654,533 666,533 678,533 690,536 700,542 711,548 720,557 726,567 732,578 735,589 735,601 735,602 735,602 735,603 L 735,603 C 734,614 731,626 726,636 720,646 711,655 700,661 690,667 679,670 668,670 L 668,670 Z"/>
        </g>
       </g>
      </g>
     </g>
    </g>
   </g>
  </g>
 </g>
</svg>