<svg id="图层_1" data-name="图层 1" xmlns="http://www.w3.org/2000/svg" viewBox="0 0 32 32"><defs><style>.cls-1{fill:#2d6db5;}</style></defs><title>3333</title><path class="cls-1" d="M9.63,0H6.09A6.09,6.09,0,0,0,0,6.09V9.63a.19.19,0,0,0,.33.13L9.76.33A.19.19,0,0,0,9.63,0Z" transform="translate(0 0)"/><path class="cls-1" d="M.14,13.43h0a.49.49,0,0,0-.14.34V26.11A5.89,5.89,0,0,0,5.89,32h8.44V13.43ZM7.21,25.3a2.59,2.59,0,1,1,2.54-2.54A2.57,2.57,0,0,1,7.21,25.3Z" transform="translate(0 0)"/><path class="cls-1" d="M26.11,0H16.25a3.69,3.69,0,0,0-2.61,1.08l-8,8a.57.57,0,0,0,.4,1H17.67V32h8.44A5.89,5.89,0,0,0,32,26.11V5.89A5.89,5.89,0,0,0,26.11,0Zm-.86,25.34a2.59,2.59,0,1,1,2.54-2.54A2.59,2.59,0,0,1,25.25,25.34Z" transform="translate(0 0)"/></svg>